{
  "asset": {
    "version": "2.0",
    "generator": "THREE.GLTFExporter"
  },
  "scenes": [
    {
      "nodes": [
        5
      ],
      "name": "AuxScene"
    }
  ],
  "scene": 0,
  "nodes": [
    {
      "matrix": [
        0.9314739398970456,
        2.254774370309576e-9,
        -0.016258936238338264,
        0,
        2.332702135633643e-9,
        0.931615650653802,
        2.6283603541551e-7,
        0,
        0.01625893623833825,
        -2.6283676593328796e-7,
        0.9314739398970087,
        0,
        -0.006690679583698511,
        0.023192748427391052,
        -0.06020632013678551,
        1
      ],
      "name": "sleeves",
      "mesh": 0
    },
    {
      "matrix": [
        0.9314739398970456,
        2.254774370309576e-9,
        -0.016258936238338264,
        0,
        2.332702135633643e-9,
        0.931615650653802,
        2.6283603541551e-7,
        0,
        0.01625893623833825,
        -2.6283676593328796e-7,
        0.9314739398970087,
        0,
        -0.006690679583698511,
        0.023192748427391052,
        -0.06020632013678551,
        1
      ],
      "name": "back",
      "mesh": 1
    },
    {
      "matrix": [
        0.9314739398970456,
        2.254774370309576e-9,
        -0.016258936238338264,
        0,
        2.332702135633643e-9,
        0.931615650653802,
        2.6283603541551e-7,
        0,
        0.01625893623833825,
        -2.6283676593328796e-7,
        0.9314739398970087,
        0,
        -0.006690679583698511,
        0.023192748427391052,
        -0.06020632013678551,
        1
      ],
      "name": "sleeves-line",
      "mesh": 2
    },
    {
      "matrix": [
        0.9314739398970456,
        2.254774370309576e-9,
        -0.016258936238338264,
        0,
        2.332702135633643e-9,
        0.931615650653802,
        2.6283603541551e-7,
        0,
        0.01625893623833825,
        -2.6283676593328796e-7,
        0.9314739398970087,
        0,
        -0.006690679583698511,
        0.023192748427391052,
        -0.06020632013678551,
        1
      ],
      "name": "front",
      "mesh": 3
    },
    {
      "matrix": [
        0.9314739398970456,
        2.254774370309576e-9,
        -0.016258936238338264,
        0,
        2.332702135633643e-9,
        0.931615650653802,
        2.6283603541551e-7,
        0,
        0.01625893623833825,
        -2.6283676593328796e-7,
        0.9314739398970087,
        0,
        -0.006690679583698511,
        0.0231927502900362,
        -0.06020632013678551,
        1
      ],
      "name": "neck",
      "mesh": 4
    },
    {
      "children": [
        0,
        1,
        2,
        3,
        4
      ]
    }
  ],
  "bufferViews": [
    {
      "buffer": 0,
      "byteOffset": 0,
      "byteLength": 92880,
      "target": 34962,
      "byteStride": 12
    },
    {
      "buffer": 0,
      "byteOffset": 92880,
      "byteLength": 92880,
      "target": 34962,
      "byteStride": 12
    },
    {
      "buffer": 0,
      "byteOffset": 185760,
      "byteLength": 61920,
      "target": 34962,
      "byteStride": 8
    },
    {
      "buffer": 0,
      "byteOffset": 247680,
      "byteLength": 15480,
      "target": 34963
    },
    {
      "buffer": 0,
      "byteOffset": 263160,
      "byteLength": 152568,
      "target": 34962,
      "byteStride": 12
    },
    {
      "buffer": 0,
      "byteOffset": 415728,
      "byteLength": 152568,
      "target": 34962,
      "byteStride": 12
    },
    {
      "buffer": 0,
      "byteOffset": 568296,
      "byteLength": 101712,
      "target": 34962,
      "byteStride": 8
    },
    {
      "buffer": 0,
      "byteOffset": 670008,
      "byteLength": 25428,
      "target": 34963
    },
    {
      "buffer": 0,
      "byteOffset": 695436,
      "byteLength": 37944,
      "target": 34962,
      "byteStride": 12
    },
    {
      "buffer": 0,
      "byteOffset": 733380,
      "byteLength": 37944,
      "target": 34962,
      "byteStride": 12
    },
    {
      "buffer": 0,
      "byteOffset": 771324,
      "byteLength": 25296,
      "target": 34962,
      "byteStride": 8
    },
    {
      "buffer": 0,
      "byteOffset": 796620,
      "byteLength": 6324,
      "target": 34963
    },
    {
      "buffer": 0,
      "byteOffset": 802944,
      "byteLength": 161064,
      "target": 34962,
      "byteStride": 12
    },
    {
      "buffer": 0,
      "byteOffset": 964008,
      "byteLength": 161064,
      "target": 34962,
      "byteStride": 12
    },
    {
      "buffer": 0,
      "byteOffset": 1125072,
      "byteLength": 107376,
      "target": 34962,
      "byteStride": 8
    },
    {
      "buffer": 0,
      "byteOffset": 1232448,
      "byteLength": 26844,
      "target": 34963
    },
    {
      "buffer": 0,
      "byteOffset": 1259292,
      "byteLength": 20088,
      "target": 34962,
      "byteStride": 12
    },
    {
      "buffer": 0,
      "byteOffset": 1279380,
      "byteLength": 20088,
      "target": 34962,
      "byteStride": 12
    },
    {
      "buffer": 0,
      "byteOffset": 1299468,
      "byteLength": 20088,
      "target": 34962,
      "byteStride": 12
    },
    {
      "buffer": 0,
      "byteOffset": 1319556,
      "byteLength": 13392,
      "target": 34962,
      "byteStride": 8
    },
    {
      "buffer": 0,
      "byteOffset": 1332948,
      "byteLength": 3348,
      "target": 34963
    }
  ],
  "buffers": [
    {
      "uri": "shirt_data.bin",
      "byteLength": 1336296
    }
  ],
  "accessors": [
    {
      "bufferView": 0,
      "componentType": 5126,
      "count": 7740,
      "max": [
        27.293718338012695,
        28.04886245727539,
        5.483920097351074
      ],
      "min": [
        -27.185033798217773,
        7.807523727416992,
        -8.797880172729492
      ],
      "type": "VEC3"
    },
    {
      "bufferView": 1,
      "componentType": 5126,
      "count": 7740,
      "max": [
        0.9999253153800964,
        0.952116072177887,
        0.9998574256896973
      ],
      "min": [
        -0.999820351600647,
        -0.9938672780990601,
        -0.9999884366989136
      ],
      "type": "VEC3"
    },
    {
      "bufferView": 2,
      "componentType": 5126,
      "count": 7740,
      "max": [
        0.9978078007698059,
        0.951299786567688
      ],
      "min": [
        0.0026756057050079107,
        0.0834040641784668
      ],
      "type": "VEC2"
    },
    {
      "bufferView": 3,
      "componentType": 5123,
      "count": 7740,
      "max": [
        7739
      ],
      "min": [
        0
      ],
      "type": "SCALAR"
    },
    {
      "bufferView": 4,
      "componentType": 5126,
      "count": 12714,
      "max": [
        22.22452163696289,
        34.72282028198242,
        1.9007511138916016
      ],
      "min": [
        -21.832590103149414,
        -26.073863983154297,
        -12.36679458618164
      ],
      "type": "VEC3"
    },
    {
      "bufferView": 5,
      "componentType": 5126,
      "count": 12714,
      "max": [
        0.9998186230659485,
        0.9992218613624573,
        0.968940794467926
      ],
      "min": [
        -0.9999250769615173,
        -0.9068729877471924,
        -0.9999816417694092
      ],
      "type": "VEC3"
    },
    {
      "bufferView": 6,
      "componentType": 5126,
      "count": 12714,
      "max": [
        0.9932621717453003,
        0.9951688051223755
      ],
      "min": [
        0.014844037592411041,
        0.17496132850646973
      ],
      "type": "VEC2"
    },
    {
      "bufferView": 7,
      "componentType": 5123,
      "count": 12714,
      "max": [
        12713
      ],
      "min": [
        0
      ],
      "type": "SCALAR"
    },
    {
      "bufferView": 8,
      "componentType": 5126,
      "count": 3162,
      "max": [
        27.709056854248047,
        11.623003005981445,
        2.817594289779663
      ],
      "min": [
        -27.564170837402344,
        6.623119354248047,
        -7.759103775024414
      ],
      "type": "VEC3"
    },
    {
      "bufferView": 9,
      "componentType": 5126,
      "count": 3162,
      "max": [
        0.9967048764228821,
        0.981020450592041,
        0.995891809463501
      ],
      "min": [
        -0.9980306625366211,
        -0.8950363397598267,
        -0.9983729720115662
      ],
      "type": "VEC3"
    },
    {
      "bufferView": 10,
      "componentType": 5126,
      "count": 3162,
      "max": [
        0.7497367262840271,
        0.08463072776794434
      ],
      "min": [
        0.010351325385272503,
        0.0593949556350708
      ],
      "type": "VEC2"
    },
    {
      "bufferView": 11,
      "componentType": 5123,
      "count": 3162,
      "max": [
        3161
      ],
      "min": [
        0
      ],
      "type": "SCALAR"
    },
    {
      "bufferView": 12,
      "componentType": 5126,
      "count": 13422,
      "max": [
        22.263931274414062,
        34.700279235839844,
        14.616074562072754
      ],
      "min": [
        -21.83434295654297,
        -25.953174591064453,
        -2.368544578552246
      ],
      "type": "VEC3"
    },
    {
      "bufferView": 13,
      "componentType": 5126,
      "count": 13422,
      "max": [
        0.9999990463256836,
        0.9998996257781982,
        0.9999731183052063
      ],
      "min": [
        -0.9999256134033203,
        -0.9547495245933533,
        -0.9705474376678467
      ],
      "type": "VEC3"
    },
    {
      "bufferView": 14,
      "componentType": 5126,
      "count": 13422,
      "max": [
        0.4966665506362915,
        0.9978078007698059
      ],
      "min": [
        0.0021922006271779537,
        0.014407157897949219
      ],
      "type": "VEC2"
    },
    {
      "bufferView": 15,
      "componentType": 5123,
      "count": 13422,
      "max": [
        13421
      ],
      "min": [
        0
      ],
      "type": "SCALAR"
    },
    {
      "bufferView": 16,
      "componentType": 5126,
      "count": 1674,
      "max": [
        8.47412395477295,
        35.27092361450195,
        7.2135009765625
      ],
      "min": [
        -7.920956611633301,
        29.6182861328125,
        -6.523838520050049
      ],
      "type": "VEC3"
    },
    {
      "bufferView": 17,
      "componentType": 5126,
      "count": 1674,
      "max": [
        1,
        1,
        1
      ],
      "min": [
        1,
        1,
        1
      ],
      "type": "VEC3"
    },
    {
      "bufferView": 18,
      "componentType": 5126,
      "count": 1674,
      "max": [
        0.9365103244781494,
        0.9993415474891663,
        0.9456160664558411
      ],
      "min": [
        -0.935348629951477,
        -0.9034744501113892,
        -0.9999877214431763
      ],
      "type": "VEC3"
    },
    {
      "bufferView": 19,
      "componentType": 5126,
      "count": 1674,
      "max": [
        0.834099292755127,
        0.9956910610198975
      ],
      "min": [
        0.010849272832274437,
        0.014407157897949219
      ],
      "type": "VEC2"
    },
    {
      "bufferView": 20,
      "componentType": 5123,
      "count": 1674,
      "max": [
        1673
      ],
      "min": [
        0
      ],
      "type": "SCALAR"
    }
  ],
  "materials": [
    {
      "pbrMetallicRoughness": {
        "baseColorFactor": [
          0.800000011920929,
          0.800000011920929,
          0.800000011920929,
          1
        ],
        "metallicFactor": 0.5,
        "roughnessFactor": 0.5
      },
      "name": "Material.001"
    }
  ],
  "meshes": [
    {
      "primitives": [
        {
          "mode": 4,
          "attributes": {
            "POSITION": 0,
            "NORMAL": 1,
            "TEXCOORD_0": 2
          },
          "indices": 3,
          "material": 0
        }
      ]
    },
    {
      "primitives": [
        {
          "mode": 4,
          "attributes": {
            "POSITION": 4,
            "NORMAL": 5,
            "TEXCOORD_0": 6
          },
          "indices": 7,
          "material": 0
        }
      ]
    },
    {
      "primitives": [
        {
          "mode": 4,
          "attributes": {
            "POSITION": 8,
            "NORMAL": 9,
            "TEXCOORD_0": 10
          },
          "indices": 11,
          "material": 0
        }
      ]
    },
    {
      "primitives": [
        {
          "mode": 4,
          "attributes": {
            "POSITION": 12,
            "NORMAL": 13,
            "TEXCOORD_0": 14
          },
          "indices": 15,
          "material": 0
        }
      ]
    },
    {
      "primitives": [
        {
          "mode": 4,
          "attributes": {
            "POSITION": 16,
            "COLOR_0": 17,
            "NORMAL": 18,
            "TEXCOORD_0": 19
          },
          "indices": 20,
          "material": 0
        }
      ]
    }
  ]
}