{
  "asset": {
    "version": "2.0",
    "generator": "THREE.GLTFExporter"
  },
  "scenes": [
    {
      "nodes": [
        2
      ],
      "name": "AuxScene"
    }
  ],
  "scene": 0,
  "nodes": [
    {
      "matrix": [
        -65.15583014926676,
        -44.527139649298746,
        -61.41703047373548,
        0,
        -32.40134875938975,
        89.53957258106573,
        -30.542086805773774,
        0,
        68.59205375566496,
        -0.000003961755254689149,
        -72.76763453418769,
        0,
        748.1131591796875,
        534.3665161132812,
        650.7639770507812,
        1
      ],
      "name": "Camera",
      "camera": 0
    },
    {
      "matrix": [
        100,
        0,
        0,
        0,
        0,
        -0.000004371139006309477,
        -99.9999999999999,
        0,
        0,
        99.9999999999999,
        -0.000004371139006309477,
        0,
        0,
        0,
        0,
        1
      ],
      "name": "Cube",
      "mesh": 0
    },
    {
      "children": [
        0,
        1
      ]
    }
  ],
  "cameras": [
    {
      "type": "perspective",
      "perspective": {
        "aspectRatio": 1.7777777777777777,
        "yfov": 0.30843838250961614,
        "zfar": 10,
        "znear": 0.010000000149011612
      },
      "name": "PerspectiveCamera"
    }
  ],
  "bufferViews": [
    {
      "buffer": 0,
      "byteOffset": 0,
      "byteLength": 432,
      "target": 34962,
      "byteStride": 12
    },
    {
      "buffer": 0,
      "byteOffset": 432,
      "byteLength": 432,
      "target": 34962,
      "byteStride": 12
    }
  ],
  "buffers": [
    {
      "byteLength": 864,
      "uri": "data:application/octet-stream;base64,"
    }
  ],
  "accessors": [
    {
      "bufferView": 0,
      "componentType": 5126,
      "count": 36,
      "max": [
        1.0000004768371582,
        1.0000003576278687,
        1
      ],
      "min": [
        -1.0000003576278687,
        -1.0000005960464478,
        -1
      ],
      "type": "VEC3"
    },
    {
      "bufferView": 1,
      "componentType": 5126,
      "count": 36,
      "max": [
        1,
        1,
        1
      ],
      "min": [
        -1,
        -1,
        -1
      ],
      "type": "VEC3"
    }
  ],
  "materials": [
    {
      "pbrMetallicRoughness": {
        "baseColorFactor": [
          0.800000011920929,
          0.800000011920929,
          0.800000011920929,
          0
        ],
        "metallicFactor": 0.5,
        "roughnessFactor": 0.5
      },
      "alphaMode": "BLEND",
      "name": "Material"
    }
  ],
  "meshes": [
    {
      "primitives": [
        {
          "mode": 4,
          "attributes": {
            "POSITION": 0,
            "NORMAL": 1
          },
          "material": 0
        }
      ]
    }
  ]
}