{
  "asset": {
    "version": "2.0",
    "generator": "THREE.GLTFExporter"
  },
  "scenes": [
    {
      "nodes": [
        5
      ],
      "name": "AuxScene"
    }
  ],
  "scene": 0,
  "nodes": [
    {
      "matrix": [
        0.9314739398970456,
        2.254774370309576e-9,
        -0.016258936238338264,
        0,
        2.332702135633643e-9,
        0.931615650653802,
        2.6283603541551e-7,
        0,
        0.01625893623833825,
        -2.6283676593328796e-7,
        0.9314739398970087,
        0,
        -0.006690679583698511,
        0.023192748427391052,
        -0.06020632013678551,
        1
      ],
      "name": "back",
      "mesh": 0
    },
    {
      "matrix": [
        0.9314739398970456,
        2.254774370309576e-9,
        -0.016258936238338264,
        0,
        2.332702135633643e-9,
        0.931615650653802,
        2.6283603541551e-7,
        0,
        0.01625893623833825,
        -2.6283676593328796e-7,
        0.9314739398970087,
        0,
        -0.006690679583698511,
        0.023192748427391052,
        -0.06020632013678551,
        1
      ],
      "name": "sleeves",
      "mesh": 1
    },
    {
      "matrix": [
        0.9314739398970456,
        2.254774370309576e-9,
        -0.016258936238338264,
        0,
        2.332702135633643e-9,
        0.931615650653802,
        2.6283603541551e-7,
        0,
        0.01625893623833825,
        -2.6283676593328796e-7,
        0.9314739398970087,
        0,
        -0.006690679583698511,
        0.023192748427391052,
        -0.06020632013678551,
        1
      ],
      "name": "sleeves-line",
      "mesh": 2
    },
    {
      "matrix": [
        0.9314739398970456,
        2.254774370309576e-9,
        -0.016258936238338264,
        0,
        2.332702135633643e-9,
        0.931615650653802,
        2.6283603541551e-7,
        0,
        0.01625893623833825,
        -2.6283676593328796e-7,
        0.9314739398970087,
        0,
        -0.006690679583698511,
        0.0231927502900362,
        -0.06020632013678551,
        1
      ],
      "name": "neck",
      "mesh": 3
    },
    {
      "matrix": [
        0.9314739398970456,
        2.254774370309576e-9,
        -0.016258936238338264,
        0,
        2.332702135633643e-9,
        0.931615650653802,
        2.6283603541551e-7,
        0,
        0.01625893623833825,
        -2.6283676593328796e-7,
        0.9314739398970087,
        0,
        -0.006690679583698511,
        0.023192748427391052,
        -0.06020632013678551,
        1
      ],
      "name": "front",
      "mesh": 4
    },
    {
      "children": [
        0,
        1,
        2,
        3,
        4
      ]
    }
  ],
  "bufferViews": [
    {
      "buffer": 0,
      "byteOffset": 0,
      "byteLength": 152568,
      "target": 34962,
      "byteStride": 12
    },
    {
      "buffer": 0,
      "byteOffset": 152568,
      "byteLength": 152568,
      "target": 34962,
      "byteStride": 12
    },
    {
      "buffer": 0,
      "byteOffset": 305136,
      "byteLength": 101712,
      "target": 34962,
      "byteStride": 8
    },
    {
      "buffer": 0,
      "byteOffset": 406848,
      "byteLength": 92880,
      "target": 34962,
      "byteStride": 12
    },
    {
      "buffer": 0,
      "byteOffset": 499728,
      "byteLength": 92880,
      "target": 34962,
      "byteStride": 12
    },
    {
      "buffer": 0,
      "byteOffset": 592608,
      "byteLength": 61920,
      "target": 34962,
      "byteStride": 8
    },
    {
      "buffer": 0,
      "byteOffset": 654528,
      "byteLength": 37944,
      "target": 34962,
      "byteStride": 12
    },
    {
      "buffer": 0,
      "byteOffset": 692472,
      "byteLength": 37944,
      "target": 34962,
      "byteStride": 12
    },
    {
      "buffer": 0,
      "byteOffset": 730416,
      "byteLength": 25296,
      "target": 34962,
      "byteStride": 8
    },
    {
      "buffer": 0,
      "byteOffset": 755712,
      "byteLength": 20088,
      "target": 34962,
      "byteStride": 12
    },
    {
      "buffer": 0,
      "byteOffset": 775800,
      "byteLength": 20088,
      "target": 34962,
      "byteStride": 12
    },
    {
      "buffer": 0,
      "byteOffset": 795888,
      "byteLength": 20088,
      "target": 34962,
      "byteStride": 12
    },
    {
      "buffer": 0,
      "byteOffset": 815976,
      "byteLength": 13392,
      "target": 34962,
      "byteStride": 8
    },
    {
      "buffer": 0,
      "byteOffset": 829368,
      "byteLength": 161064,
      "target": 34962,
      "byteStride": 12
    },
    {
      "buffer": 0,
      "byteOffset": 990432,
      "byteLength": 161064,
      "target": 34962,
      "byteStride": 12
    },
    {
      "buffer": 0,
      "byteOffset": 1151496,
      "byteLength": 107376,
      "target": 34962,
      "byteStride": 8
    }
  ],
  "buffers": [
    {
      "byteLength": 1258872,
      "uri": "data:application/octet-stream;base64,"
    }
  ],
  "accessors": [
    {
      "bufferView": 0,
      "componentType": 5126,
      "count": 12714,
      "max": [
        22.22452163696289,
        34.72282028198242,
        1.9007511138916016
      ],
      "min": [
        -21.832590103149414,
        -26.073863983154297,
        -12.36679458618164
      ],
      "type": "VEC3"
    },
    {
      "bufferView": 1,
      "componentType": 5126,
      "count": 12714,
      "max": [
        0.9998186230659485,
        0.9992218613624573,
        0.968940794467926
      ],
      "min": [
        -0.9999250769615173,
        -0.9068729877471924,
        -0.9999816417694092
      ],
      "type": "VEC3"
    },
    {
      "bufferView": 2,
      "componentType": 5126,
      "count": 12714,
      "max": [
        0.9932621717453003,
        0.9951688051223755
      ],
      "min": [
        0.014844037592411041,
        0.17496132850646973
      ],
      "type": "VEC2"
    },
    {
      "bufferView": 3,
      "componentType": 5126,
      "count": 7740,
      "max": [
        27.293718338012695,
        28.04886245727539,
        5.483920097351074
      ],
      "min": [
        -27.185033798217773,
        7.807523727416992,
        -8.797880172729492
      ],
      "type": "VEC3"
    },
    {
      "bufferView": 4,
      "componentType": 5126,
      "count": 7740,
      "max": [
        0.9999253153800964,
        0.952116072177887,
        0.9998574256896973
      ],
      "min": [
        -0.999820351600647,
        -0.9938672780990601,
        -0.9999884366989136
      ],
      "type": "VEC3"
    },
    {
      "bufferView": 5,
      "componentType": 5126,
      "count": 7740,
      "max": [
        0.9978078007698059,
        0.951299786567688
      ],
      "min": [
        0.0026756057050079107,
        0.0834040641784668
      ],
      "type": "VEC2"
    },
    {
      "bufferView": 6,
      "componentType": 5126,
      "count": 3162,
      "max": [
        27.709056854248047,
        11.623003005981445,
        2.817594289779663
      ],
      "min": [
        -27.564170837402344,
        6.623119354248047,
        -7.759103775024414
      ],
      "type": "VEC3"
    },
    {
      "bufferView": 7,
      "componentType": 5126,
      "count": 3162,
      "max": [
        0.9967048764228821,
        0.981020450592041,
        0.995891809463501
      ],
      "min": [
        -0.9980306625366211,
        -0.8950363397598267,
        -0.9983729720115662
      ],
      "type": "VEC3"
    },
    {
      "bufferView": 8,
      "componentType": 5126,
      "count": 3162,
      "max": [
        0.7497367262840271,
        0.08463072776794434
      ],
      "min": [
        0.010351325385272503,
        0.0593949556350708
      ],
      "type": "VEC2"
    },
    {
      "bufferView": 9,
      "componentType": 5126,
      "count": 1674,
      "max": [
        8.47412395477295,
        35.27092361450195,
        7.2135009765625
      ],
      "min": [
        -7.920956611633301,
        29.6182861328125,
        -6.523838520050049
      ],
      "type": "VEC3"
    },
    {
      "bufferView": 10,
      "componentType": 5126,
      "count": 1674,
      "max": [
        1,
        1,
        1
      ],
      "min": [
        1,
        1,
        1
      ],
      "type": "VEC3"
    },
    {
      "bufferView": 11,
      "componentType": 5126,
      "count": 1674,
      "max": [
        0.9365103244781494,
        0.9993415474891663,
        0.9456160664558411
      ],
      "min": [
        -0.935348629951477,
        -0.9034744501113892,
        -0.9999877214431763
      ],
      "type": "VEC3"
    },
    {
      "bufferView": 12,
      "componentType": 5126,
      "count": 1674,
      "max": [
        0.834099292755127,
        0.9956910610198975
      ],
      "min": [
        0.010849272832274437,
        0.014407157897949219
      ],
      "type": "VEC2"
    },
    {
      "bufferView": 13,
      "componentType": 5126,
      "count": 13422,
      "max": [
        22.263931274414062,
        34.700279235839844,
        14.616074562072754
      ],
      "min": [
        -21.83434295654297,
        -25.953174591064453,
        -2.368544578552246
      ],
      "type": "VEC3"
    },
    {
      "bufferView": 14,
      "componentType": 5126,
      "count": 13422,
      "max": [
        0.9999990463256836,
        0.9998996257781982,
        0.9999731183052063
      ],
      "min": [
        -0.9999256134033203,
        -0.9547495245933533,
        -0.9705474376678467
      ],
      "type": "VEC3"
    },
    {
      "bufferView": 15,
      "componentType": 5126,
      "count": 13422,
      "max": [
        0.4966665506362915,
        0.9978078007698059
      ],
      "min": [
        0.0021922006271779537,
        0.014407157897949219
      ],
      "type": "VEC2"
    }
  ],
  "materials": [
    {
      "pbrMetallicRoughness": {
        "baseColorFactor": [
          0.800000011920929,
          0.800000011920929,
          0.800000011920929,
          1
        ],
        "metallicFactor": 0.5,
        "roughnessFactor": 0.5
      },
      "name": "Material.001"
    }
  ],
  "meshes": [
    {
      "primitives": [
        {
          "mode": 4,
          "attributes": {
            "POSITION": 0,
            "NORMAL": 1,
            "TEXCOORD_0": 2
          },
          "material": 0
        }
      ]
    },
    {
      "primitives": [
        {
          "mode": 4,
          "attributes": {
            "POSITION": 3,
            "NORMAL": 4,
            "TEXCOORD_0": 5
          },
          "material": 0
        }
      ]
    },
    {
      "primitives": [
        {
          "mode": 4,
          "attributes": {
            "POSITION": 6,
            "NORMAL": 7,
            "TEXCOORD_0": 8
          },
          "material": 0
        }
      ]
    },
    {
      "primitives": [
        {
          "mode": 4,
          "attributes": {
            "POSITION": 9,
            "COLOR_0": 10,
            "NORMAL": 11,
            "TEXCOORD_0": 12
          },
          "material": 0
        }
      ]
    },
    {
      "primitives": [
        {
          "mode": 4,
          "attributes": {
            "POSITION": 13,
            "NORMAL": 14,
            "TEXCOORD_0": 15
          },
          "material": 0
        }
      ]
    }
  ]
}