{
  "asset": {
    "version": "2.0",
    "generator": "THREE.GLTFExporter"
  },
  "scenes": [
    {
      "nodes": [
        8
      ],
      "name": "AuxScene"
    }
  ],
  "scene": 0,
  "nodes": [
    {
      "matrix": [
        0.9314739398970456,
        2.254774370309576e-9,
        -0.016258936238338264,
        0,
        2.332702135633643e-9,
        0.931615650653802,
        2.6283603541551e-7,
        0,
        0.01625893623833825,
        -2.6283676593328796e-7,
        0.9314739398970087,
        0,
        -0.006690679583698511,
        0.023192748427391052,
        -0.06020632013678551,
        1
      ],
      "name": "sleeves-line-left",
      "mesh": 0
    },
    {
      "matrix": [
        0.9314739398970456,
        2.254774370309576e-9,
        -0.016258936238338264,
        0,
        2.332702135633643e-9,
        0.931615650653802,
        2.6283603541551e-7,
        0,
        0.01625893623833825,
        -2.6283676593328796e-7,
        0.9314739398970087,
        0,
        -0.006690679583698511,
        0.023192748427391052,
        -0.06020632013678551,
        1
      ],
      "name": "_base",
      "mesh": 1
    },
    {
      "matrix": [
        0.9314739398970456,
        2.254774370309576e-9,
        -0.016258936238338264,
        0,
        2.332702135633643e-9,
        0.931615650653802,
        2.6283603541551e-7,
        0,
        0.01625893623833825,
        -2.6283676593328796e-7,
        0.9314739398970087,
        0,
        -0.006690679583698511,
        0.023192748427391052,
        -0.06020632013678551,
        1
      ],
      "name": "back",
      "mesh": 2
    },
    {
      "matrix": [
        0.9314739398970456,
        2.254774370309576e-9,
        -0.016258936238338264,
        0,
        2.332702135633643e-9,
        0.931615650653802,
        2.6283603541551e-7,
        0,
        0.01625893623833825,
        -2.6283676593328796e-7,
        0.9314739398970087,
        0,
        -0.006690679583698511,
        0.023192748427391052,
        -0.06020632013678551,
        1
      ],
      "name": "sleeves-line-right",
      "mesh": 3
    },
    {
      "matrix": [
        0.9314739398970456,
        2.254774370309576e-9,
        -0.016258936238338264,
        0,
        2.332702135633643e-9,
        0.931615650653802,
        2.6283603541551e-7,
        0,
        0.01625893623833825,
        -2.6283676593328796e-7,
        0.9314739398970087,
        0,
        -0.006690679583698511,
        0.023192748427391052,
        -0.06020632013678551,
        1
      ],
      "name": "front",
      "mesh": 4
    },
    {
      "matrix": [
        0.9314739398970456,
        2.254774370309576e-9,
        -0.016258936238338264,
        0,
        2.332702135633643e-9,
        0.931615650653802,
        2.6283603541551e-7,
        0,
        0.01625893623833825,
        -2.6283676593328796e-7,
        0.9314739398970087,
        0,
        -0.006690679583698511,
        0.023192748427391052,
        -0.06020632013678551,
        1
      ],
      "name": "sleeves-right",
      "mesh": 5
    },
    {
      "matrix": [
        0.9314739398970456,
        2.254774370309576e-9,
        -0.016258936238338264,
        0,
        2.332702135633643e-9,
        0.931615650653802,
        2.6283603541551e-7,
        0,
        0.01625893623833825,
        -2.6283676593328796e-7,
        0.9314739398970087,
        0,
        -0.006690679583698511,
        0.0231927502900362,
        -0.06020632013678551,
        1
      ],
      "name": "neck",
      "mesh": 6
    },
    {
      "matrix": [
        0.9314739398970456,
        2.254774370309576e-9,
        -0.016258936238338264,
        0,
        2.332702135633643e-9,
        0.931615650653802,
        2.6283603541551e-7,
        0,
        0.01625893623833825,
        -2.6283676593328796e-7,
        0.9314739398970087,
        0,
        -0.006690679583698511,
        0.023192748427391052,
        -0.06020632013678551,
        1
      ],
      "name": "sleeves-left",
      "mesh": 7
    },
    {
      "children": [
        0,
        1,
        2,
        3,
        4,
        5,
        6,
        7
      ]
    }
  ],
  "bufferViews": [
    {
      "buffer": 0,
      "byteOffset": 0,
      "byteLength": 17856,
      "target": 34962,
      "byteStride": 12
    },
    {
      "buffer": 0,
      "byteOffset": 17856,
      "byteLength": 17856,
      "target": 34962,
      "byteStride": 12
    },
    {
      "buffer": 0,
      "byteOffset": 35712,
      "byteLength": 11904,
      "target": 34962,
      "byteStride": 8
    },
    {
      "buffer": 0,
      "byteOffset": 47616,
      "byteLength": 464544,
      "target": 34962,
      "byteStride": 12
    },
    {
      "buffer": 0,
      "byteOffset": 512160,
      "byteLength": 464544,
      "target": 34962,
      "byteStride": 12
    },
    {
      "buffer": 0,
      "byteOffset": 976704,
      "byteLength": 464544,
      "target": 34962,
      "byteStride": 12
    },
    {
      "buffer": 0,
      "byteOffset": 1441248,
      "byteLength": 309696,
      "target": 34962,
      "byteStride": 8
    },
    {
      "buffer": 0,
      "byteOffset": 1750944,
      "byteLength": 152568,
      "target": 34962,
      "byteStride": 12
    },
    {
      "buffer": 0,
      "byteOffset": 1903512,
      "byteLength": 152568,
      "target": 34962,
      "byteStride": 12
    },
    {
      "buffer": 0,
      "byteOffset": 2056080,
      "byteLength": 101712,
      "target": 34962,
      "byteStride": 8
    },
    {
      "buffer": 0,
      "byteOffset": 2157792,
      "byteLength": 20088,
      "target": 34962,
      "byteStride": 12
    },
    {
      "buffer": 0,
      "byteOffset": 2177880,
      "byteLength": 20088,
      "target": 34962,
      "byteStride": 12
    },
    {
      "buffer": 0,
      "byteOffset": 2197968,
      "byteLength": 13392,
      "target": 34962,
      "byteStride": 8
    },
    {
      "buffer": 0,
      "byteOffset": 2211360,
      "byteLength": 161064,
      "target": 34962,
      "byteStride": 12
    },
    {
      "buffer": 0,
      "byteOffset": 2372424,
      "byteLength": 161064,
      "target": 34962,
      "byteStride": 12
    },
    {
      "buffer": 0,
      "byteOffset": 2533488,
      "byteLength": 107376,
      "target": 34962,
      "byteStride": 8
    },
    {
      "buffer": 0,
      "byteOffset": 2640864,
      "byteLength": 53136,
      "target": 34962,
      "byteStride": 12
    },
    {
      "buffer": 0,
      "byteOffset": 2694000,
      "byteLength": 53136,
      "target": 34962,
      "byteStride": 12
    },
    {
      "buffer": 0,
      "byteOffset": 2747136,
      "byteLength": 35424,
      "target": 34962,
      "byteStride": 8
    },
    {
      "buffer": 0,
      "byteOffset": 2782560,
      "byteLength": 20088,
      "target": 34962,
      "byteStride": 12
    },
    {
      "buffer": 0,
      "byteOffset": 2802648,
      "byteLength": 20088,
      "target": 34962,
      "byteStride": 12
    },
    {
      "buffer": 0,
      "byteOffset": 2822736,
      "byteLength": 20088,
      "target": 34962,
      "byteStride": 12
    },
    {
      "buffer": 0,
      "byteOffset": 2842824,
      "byteLength": 13392,
      "target": 34962,
      "byteStride": 8
    },
    {
      "buffer": 0,
      "byteOffset": 2856216,
      "byteLength": 51984,
      "target": 34962,
      "byteStride": 12
    },
    {
      "buffer": 0,
      "byteOffset": 2908200,
      "byteLength": 51984,
      "target": 34962,
      "byteStride": 12
    },
    {
      "buffer": 0,
      "byteOffset": 2960184,
      "byteLength": 34656,
      "target": 34962,
      "byteStride": 8
    }
  ],
  "buffers": [
    {
      "byteLength": 2994840,
      "uri": "data:application/octet-stream;base64,"
    }
  ],
  "accessors": [
    {
      "bufferView": 0,
      "componentType": 5126,
      "count": 1488,
      "max": [
        27.800655364990234,
        11.3931245803833,
        2.91705322265625
      ],
      "min": [
        16.023757934570312,
        6.542389392852783,
        -7.858663558959961
      ],
      "type": "VEC3"
    },
    {
      "bufferView": 1,
      "componentType": 5126,
      "count": 1488,
      "max": [
        0.9862285852432251,
        0.9999513626098633,
        0.9985018372535706
      ],
      "min": [
        -0.9975847005844116,
        -0.9394964575767517,
        -0.9984339475631714
      ],
      "type": "VEC3"
    },
    {
      "bufferView": 2,
      "componentType": 5126,
      "count": 1488,
      "max": [
        0.1815013885498047,
        0.9957088232040405
      ],
      "min": [
        0.0025292634963989258,
        0.983090877532959
      ],
      "type": "VEC2"
    },
    {
      "bufferView": 3,
      "componentType": 5126,
      "count": 38712,
      "max": [
        27.709056854248047,
        35.27092361450195,
        14.616076469421387
      ],
      "min": [
        -27.564170837402344,
        -26.073863983154297,
        -12.36679458618164
      ],
      "type": "VEC3"
    },
    {
      "bufferView": 4,
      "componentType": 5126,
      "count": 38712,
      "max": [
        1,
        1,
        1
      ],
      "min": [
        1,
        1,
        1
      ],
      "type": "VEC3"
    },
    {
      "bufferView": 5,
      "componentType": 5126,
      "count": 38712,
      "max": [
        0.9999990463256836,
        0.9998996257781982,
        0.9999731183052063
      ],
      "min": [
        -0.9999256134033203,
        -0.9938672780990601,
        -0.9999883770942688
      ],
      "type": "VEC3"
    },
    {
      "bufferView": 6,
      "componentType": 5126,
      "count": 38712,
      "max": [
        0.9978078007698059,
        0.9978078007698059
      ],
      "min": [
        0.0021922006271779537,
        0.014407157897949219
      ],
      "type": "VEC2"
    },
    {
      "bufferView": 7,
      "componentType": 5126,
      "count": 12714,
      "max": [
        22.2643985748291,
        34.769432067871094,
        1.9194331169128418
      ],
      "min": [
        -21.87294578552246,
        -26.116865158081055,
        -12.416669845581055
      ],
      "type": "VEC3"
    },
    {
      "bufferView": 8,
      "componentType": 5126,
      "count": 12714,
      "max": [
        1,
        0.9998917579650879,
        0.9964808225631714
      ],
      "min": [
        -0.9994322657585144,
        -0.9993991255760193,
        -0.9999815821647644
      ],
      "type": "VEC3"
    },
    {
      "bufferView": 9,
      "componentType": 5126,
      "count": 12714,
      "max": [
        0.9787850379943848,
        0.9966459274291992
      ],
      "min": [
        -0.0003637075424194336,
        0.01415310800075531
      ],
      "type": "VEC2"
    },
    {
      "bufferView": 10,
      "componentType": 5126,
      "count": 1674,
      "max": [
        -15.696329116821289,
        11.717771530151367,
        2.847553253173828
      ],
      "min": [
        -27.653499603271484,
        7.013644218444824,
        -7.809267044067383
      ],
      "type": "VEC3"
    },
    {
      "bufferView": 11,
      "componentType": 5126,
      "count": 1674,
      "max": [
        0.9968683123588562,
        0.9989354610443115,
        0.9987488389015198
      ],
      "min": [
        -0.9932112097740173,
        -0.946414053440094,
        -0.9996926784515381
      ],
      "type": "VEC3"
    },
    {
      "bufferView": 12,
      "componentType": 5126,
      "count": 1674,
      "max": [
        0.18205609917640686,
        0.9965413212776184
      ],
      "min": [
        0.0022807419300079346,
        0.9845368266105652
      ],
      "type": "VEC2"
    },
    {
      "bufferView": 13,
      "componentType": 5126,
      "count": 13422,
      "max": [
        22.351930618286133,
        34.799583435058594,
        14.715975761413574
      ],
      "min": [
        -21.916790008544922,
        -26.046091079711914,
        -2.396427631378174
      ],
      "type": "VEC3"
    },
    {
      "bufferView": 14,
      "componentType": 5126,
      "count": 13422,
      "max": [
        0.9999987483024597,
        0.9997065663337708,
        0.999973475933075
      ],
      "min": [
        -0.9997617602348328,
        -0.9998884797096252,
        -0.9998976588249207
      ],
      "type": "VEC3"
    },
    {
      "bufferView": 15,
      "componentType": 5126,
      "count": 13422,
      "max": [
        0.9800739288330078,
        0.9967677593231201
      ],
      "min": [
        0.003365539014339447,
        0.020204633474349976
      ],
      "type": "VEC2"
    },
    {
      "bufferView": 16,
      "componentType": 5126,
      "count": 4428,
      "max": [
        22.34603500366211,
        28.117570877075195,
        5.4943342208862305
      ],
      "min": [
        -27.2799072265625,
        8.185601234436035,
        -8.897534370422363
      ],
      "type": "VEC3"
    },
    {
      "bufferView": 17,
      "componentType": 5126,
      "count": 4428,
      "max": [
        0.9999883770942688,
        0.9944615364074707,
        0.9990625977516174
      ],
      "min": [
        -0.9996540546417236,
        -0.99266517162323,
        -0.9999884366989136
      ],
      "type": "VEC3"
    },
    {
      "bufferView": 18,
      "componentType": 5126,
      "count": 4428,
      "max": [
        0.8067687749862671,
        0.9971070289611816
      ],
      "min": [
        0.0024759769439697266,
        0.16169202327728271
      ],
      "type": "VEC2"
    },
    {
      "bufferView": 19,
      "componentType": 5126,
      "count": 1674,
      "max": [
        8.462194442749023,
        35.36491775512695,
        7.296772003173828
      ],
      "min": [
        -7.9509077072143555,
        29.544269561767578,
        -6.587703227996826
      ],
      "type": "VEC3"
    },
    {
      "bufferView": 20,
      "componentType": 5126,
      "count": 1674,
      "max": [
        1,
        1,
        1
      ],
      "min": [
        1,
        1,
        1
      ],
      "type": "VEC3"
    },
    {
      "bufferView": 21,
      "componentType": 5126,
      "count": 1674,
      "max": [
        0.993730902671814,
        0.9952921867370605,
        0.9270275831222534
      ],
      "min": [
        -0.9796623587608337,
        -0.9034770131111145,
        -0.9999398589134216
      ],
      "type": "VEC3"
    },
    {
      "bufferView": 22,
      "componentType": 5126,
      "count": 1674,
      "max": [
        0.9845302104949951,
        0.9956551790237427
      ],
      "min": [
        0.002697676420211792,
        0.013801634311676025
      ],
      "type": "VEC2"
    },
    {
      "bufferView": 23,
      "componentType": 5126,
      "count": 4332,
      "max": [
        27.39150619506836,
        28.107690811157227,
        5.573977947235107
      ],
      "min": [
        -21.91203498840332,
        7.767146587371826,
        -8.799588203430176
      ],
      "type": "VEC3"
    },
    {
      "bufferView": 24,
      "componentType": 5126,
      "count": 4332,
      "max": [
        0.9996841549873352,
        0.9964205026626587,
        0.9998729228973389
      ],
      "min": [
        -0.999716579914093,
        -0.9216625094413757,
        -0.9996381998062134
      ],
      "type": "VEC3"
    },
    {
      "bufferView": 25,
      "componentType": 5126,
      "count": 4332,
      "max": [
        0.9880493879318237,
        0.9971127510070801
      ],
      "min": [
        0.002956211566925049,
        0.009554386138916016
      ],
      "type": "VEC2"
    }
  ],
  "materials": [
    {
      "pbrMetallicRoughness": {
        "baseColorFactor": [
          0.800000011920929,
          0.800000011920929,
          0.800000011920929,
          1
        ],
        "metallicFactor": 0.5,
        "roughnessFactor": 0.5
      },
      "name": "Material.001"
    },
    {
      "pbrMetallicRoughness": {
        "baseColorFactor": [
          0.8000000715255737,
          0.009299002587795258,
          0.017694659531116486,
          1
        ],
        "metallicFactor": 0.5,
        "roughnessFactor": 0.5
      },
      "name": "Material.002"
    }
  ],
  "meshes": [
    {
      "primitives": [
        {
          "mode": 4,
          "attributes": {
            "POSITION": 0,
            "NORMAL": 1,
            "TEXCOORD_0": 2
          },
          "material": 0
        }
      ]
    },
    {
      "primitives": [
        {
          "mode": 4,
          "attributes": {
            "POSITION": 3,
            "COLOR_0": 4,
            "NORMAL": 5,
            "TEXCOORD_0": 6
          },
          "material": 1
        }
      ]
    },
    {
      "primitives": [
        {
          "mode": 4,
          "attributes": {
            "POSITION": 7,
            "NORMAL": 8,
            "TEXCOORD_0": 9
          },
          "material": 0
        }
      ]
    },
    {
      "primitives": [
        {
          "mode": 4,
          "attributes": {
            "POSITION": 10,
            "NORMAL": 11,
            "TEXCOORD_0": 12
          },
          "material": 0
        }
      ]
    },
    {
      "primitives": [
        {
          "mode": 4,
          "attributes": {
            "POSITION": 13,
            "NORMAL": 14,
            "TEXCOORD_0": 15
          },
          "material": 0
        }
      ]
    },
    {
      "primitives": [
        {
          "mode": 4,
          "attributes": {
            "POSITION": 16,
            "NORMAL": 17,
            "TEXCOORD_0": 18
          },
          "material": 0
        }
      ]
    },
    {
      "primitives": [
        {
          "mode": 4,
          "attributes": {
            "POSITION": 19,
            "COLOR_0": 20,
            "NORMAL": 21,
            "TEXCOORD_0": 22
          },
          "material": 0
        }
      ]
    },
    {
      "primitives": [
        {
          "mode": 4,
          "attributes": {
            "POSITION": 23,
            "NORMAL": 24,
            "TEXCOORD_0": 25
          },
          "material": 0
        }
      ]
    }
  ]
}